Coordinates
version=1
nRows=16
nColumns=40
inDegrees=yes

Units are S.I. units (second, meters, Newtons, ...)
If the header above contains a line with 'inDegrees', this indicates whether rotational values are in degrees (yes) or radians (no).

endheader
time	pelvis_tilt	pelvis_list	pelvis_rotation	pelvis_tx	pelvis_ty	pelvis_tz	hip_flexion_r	hip_adduction_r	hip_rotation_r	knee_angle_r	knee_angle_r_beta	ankle_angle_r	subtalar_angle_r	mtp_angle_r	hip_flexion_l	hip_adduction_l	hip_rotation_l	knee_angle_l	knee_angle_l_beta	ankle_angle_l	subtalar_angle_l	mtp_angle_l	lumbar_extension	lumbar_bending	lumbar_rotation	arm_flex_r	arm_add_r	arm_rot_r	elbow_flex_r	pro_sup_r	wrist_flex_r	wrist_dev_r	arm_flex_l	arm_add_l	arm_rot_l	elbow_flex_l	pro_sup_l	wrist_flex_l	wrist_dev_l
      7.77500000	      7.21990695	     -4.87501474	    179.68329984	      0.30888770	      0.73664060	     -0.64902120	     61.08689435	     -6.05046541	     10.90003902	     73.11916539	      1.27617018	     28.18476635	      0.00000000	      0.00000000	     60.18575095	    -16.31779084	    -10.51799145	     74.25268098	      1.29595376	     16.98952464	      0.00000000	      0.00000000	    -64.37273514	     -3.83293936	     -4.64989339	     59.43640720	      0.56089871	     22.89159092	      3.35081127	      8.27760174	      0.00000000	      0.00000000	     66.91073737	    -10.64313363	     85.12672815	      4.21102927	     85.91189108	      0.00000000	      0.00000000
      7.78000000	      7.19562012	     -4.83356151	    179.68085400	      0.30888381	      0.73734495	     -0.64870182	     60.97550601	     -6.09432726	     10.82401144	     72.96480980	      1.27347617	     28.10662935	      0.00000000	      0.00000000	     60.08641657	    -16.25885732	    -10.45495653	     74.12006664	      1.29363920	     16.94816530	      0.00000000	      0.00000000	    -64.39246130	     -3.77857519	     -4.60874761	     59.46261530	      0.51768107	     22.79658861	      3.38399749	      8.29023064	      0.00000000	      0.00000000	     66.89785239	    -10.61626944	     85.13714317	      4.20322328	     85.91100134	      0.00000000	      0.00000000
      7.78500000	      7.23792446	     -4.85770863	    179.66230358	      0.30857891	      0.73792970	     -0.64864266	     60.93280691	     -6.12250613	     10.79898105	     72.83642953	      1.27123551	     28.05568295	      0.00000000	      0.00000000	     60.01395433	    -16.27985811	    -10.56063721	     74.02019693	      1.29189615	     16.92243028	      0.00000000	      0.00000000	    -64.32592318	     -3.79509979	     -4.59743675	     59.41348513	      0.51156979	     22.72031382	      3.38983355	      8.29673835	      0.00000000	      0.00000000	     66.84905152	    -10.57735295	     85.14502543	      4.21455714	     85.91167351	      0.00000000	      0.00000000
      7.79000000	      7.28232704	     -4.88348595	    179.66365117	      0.30839090	      0.73852480	     -0.64854970	     60.88955488	     -6.15748803	     10.80849035	     72.71230404	      1.26906911	     28.00127166	      0.00000000	      0.00000000	     59.95982100	    -16.24293588	    -10.61828827	     73.89890813	      1.28977926	     16.88699117	      0.00000000	      0.00000000	    -64.27384637	     -3.80325728	     -4.60037869	     59.37843671	      0.49100099	     22.64558426	      3.39896756	      8.30376857	      0.00000000	      0.00000000	     66.82047291	    -10.56212178	     85.14505985	      4.20746309	     85.91013085	      0.00000000	      0.00000000
      7.79500000	      7.25076131	     -4.88606770	    179.67285378	      0.30829498	      0.73914296	     -0.64819223	     60.77394862	     -6.24608804	     10.72635686	     72.55483148	      1.26632070	     27.93582503	      0.00000000	      0.00000000	     59.85667375	    -16.15173109	    -10.58930545	     73.78425568	      1.28777820	     16.84947622	      0.00000000	      0.00000000	    -64.27875318	     -3.77137195	     -4.59812561	     59.37749127	      0.44548646	     22.56432123	      3.41110221	      8.31293815	      0.00000000	      0.00000000	     66.78381157	    -10.52153360	     85.14461908	      4.20688724	     85.90784826	      0.00000000	      0.00000000
      7.80000000	      7.30619958	     -4.95329019	    179.67322949	      0.30794450	      0.73960094	     -0.64831324	     60.75892420	     -6.28367117	     10.76854887	     72.46977046	      1.26483610	     27.90455144	      0.00000000	      0.00000000	     59.79058470	    -16.13742042	    -10.71122720	     73.66967920	      1.28577846	     16.82319069	      0.00000000	      0.00000000	    -64.18491754	     -3.81220999	     -4.63633966	     59.30314835	      0.46949891	     22.48577589	      3.40841268	      8.31905564	      0.00000000	      0.00000000	     66.70736752	    -10.52833553	     85.14068366	      4.19065599	     85.90623611	      0.00000000	      0.00000000
      7.80500000	      7.28783323	     -4.97275742	    179.67972958	      0.30785757	      0.74028070	     -0.64800369	     60.64877629	     -6.36538658	     10.73188997	     72.30780946	      1.26200935	     27.84292459	      0.00000000	      0.00000000	     59.66938664	    -16.03970250	    -10.70722932	     73.52328573	      1.28322341	     16.76924401	      0.00000000	      0.00000000	    -64.18284831	     -3.77714380	     -4.66269067	     59.31746454	      0.46854081	     22.39022974	      3.41870749	      8.33019314	      0.00000000	      0.00000000	     66.67289350	    -10.50844651	     85.12506043	      4.19799281	     85.90351411	      0.00000000	      0.00000000
      7.81000000	      7.27701634	     -4.98348940	    179.66078283	      0.30772669	      0.74081942	     -0.64788588	     60.56668057	     -6.37920436	     10.71133773	     72.20099776	      1.26014513	     27.81125922	      0.00000000	      0.00000000	     59.58977977	    -16.05374791	    -10.80579912	     73.43712752	      1.28171967	     16.74443833	      0.00000000	      0.00000000	    -64.14786080	     -3.77821473	     -4.66550854	     59.29653064	      0.48132991	     22.33617126	      3.40622289	      8.33338350	      0.00000000	      0.00000000	     66.60925485	    -10.50956138	     85.12026263	      4.19847492	     85.90337071	      0.00000000	      0.00000000
      7.81500000	      7.21372760	     -4.94523672	    179.67426923	      0.30772637	      0.74159494	     -0.64749614	     60.37325279	     -6.43207312	     10.63390992	     71.99567482	      1.25656157	     27.75490714	      0.00000000	      0.00000000	     59.44420918	    -15.96423371	    -10.72214016	     73.29770865	      1.27928635	     16.70042055	      0.00000000	      0.00000000	    -64.19001728	     -3.69171229	     -4.65755214	     59.34548101	      0.47915954	     22.26151879	      3.39777754	      8.34028280	      0.00000000	      0.00000000	     66.59071722	    -10.51039974	     85.10099661	      4.18880387	     85.90050348	      0.00000000	      0.00000000
      7.82000000	      7.27935725	     -4.99316365	    179.66695825	      0.30746216	      0.74208462	     -0.64758366	     60.36462549	     -6.44625053	     10.66424800	     71.87306676	      1.25442166	     27.74002336	      0.00000000	      0.00000000	     59.39340516	    -15.99640764	    -10.90044380	     73.18848012	      1.27737995	     16.67791052	      0.00000000	      0.00000000	    -64.07807704	     -3.72381812	     -4.68149003	     59.26488794	      0.51120762	     22.20087898	      3.37287482	      8.34023211	      0.00000000	      0.00000000	     66.50891055	    -10.49694629	     85.08969488	      4.20058955	     85.89923566	      0.00000000	      0.00000000
      7.82500000	      7.25284154	     -5.05127757	    179.66213266	      0.30738430	      0.74270162	     -0.64728001	     60.26739814	     -6.53278519	     10.67877072	     71.75652291	      1.25238758	     27.70006009	      0.00000000	      0.00000000	     59.26808397	    -15.91578223	    -10.96489241	     73.09929399	      1.27582336	     16.64247818	      0.00000000	      0.00000000	    -64.06631484	     -3.71945911	     -4.72768561	     59.25077594	      0.51065971	     22.14934136	      3.36528445	      8.34231523	      0.00000000	      0.00000000	     66.46396987	    -10.49148528	     85.08288131	      4.20221719	     85.89863013	      0.00000000	      0.00000000
      7.83000000	      7.27132700	     -5.03127561	    179.66748683	      0.30736306	      0.74336564	     -0.64725105	     60.17760433	     -6.51458041	     10.66663348	     71.58279433	      1.24935545	     27.64585578	      0.00000000	      0.00000000	     59.18331352	    -15.92691427	    -11.04525190	     72.91922113	      1.27268050	     16.60395019	      0.00000000	      0.00000000	    -64.01324705	     -3.69501156	     -4.72826095	     59.23097161	      0.54211198	     22.09047918	      3.36324116	      8.34574422	      0.00000000	      0.00000000	     66.43281859	    -10.49705633	     85.07696806	      4.19246500	     85.89836648	      0.00000000	      0.00000000
      7.83500000	      7.27545890	     -5.07283856	    179.68225055	      0.30731684	      0.74408867	     -0.64717239	     60.07294921	     -6.56127790	     10.69905568	     71.40149625	      1.24619120	     27.58388055	      0.00000000	      0.00000000	     59.06048362	    -15.84054028	    -11.08965966	     72.72276098	      1.26925162	     16.54191652	      0.00000000	      0.00000000	    -63.98014503	     -3.69858344	     -4.77244946	     59.21265031	      0.55547524	     21.99320946	      3.36845427	      8.35134483	      0.00000000	      0.00000000	     66.39879003	    -10.48594367	     85.06478041	      4.18078121	     85.89437139	      0.00000000	      0.00000000
      7.84000000	      7.22988485	     -5.01854765	    179.67215425	      0.30746883	      0.74489975	     -0.64684208	     59.92238461	     -6.56984977	     10.60788703	     71.20475711	      1.24275745	     27.51016857	      0.00000000	      0.00000000	     58.94381283	    -15.85162765	    -11.12206582	     72.57959317	      1.26675287	     16.49286546	      0.00000000	      0.00000000	    -63.98436722	     -3.63230151	     -4.72222243	     59.23901597	      0.54562645	     21.93070802	      3.36472199	      8.35418126	      0.00000000	      0.00000000	     66.36811807	    -10.45153823	     85.06582311	      4.18520566	     85.89436548	      0.00000000	      0.00000000
      7.84500000	      7.26165542	     -5.05556114	    179.67339478	      0.30735802	      0.74565293	     -0.64685235	     59.85027384	     -6.59465400	     10.64693915	     71.02512313	      1.23962225	     27.44036747	      0.00000000	      0.00000000	     58.83973323	    -15.82924328	    -11.22839369	     72.40260317	      1.26366381	     16.43567250	      0.00000000	      0.00000000	    -63.91070409	     -3.65962828	     -4.73128596	     59.18090783	      0.54976518	     21.85430005	      3.35470952	      8.35504075	      0.00000000	      0.00000000	     66.33531136	    -10.42490146	     85.06093716	      4.18203728	     85.89205750	      0.00000000	      0.00000000
      7.85000000	      7.25532848	     -5.03894258	    179.67299779	      0.30746904	      0.74652524	     -0.64670959	     59.72363565	     -6.62568849	     10.58345082	     70.79792425	      1.23565688	     27.34847428	      0.00000000	      0.00000000	     58.71494189	    -15.80264026	    -11.26015183	     72.19375167	      1.26001867	     16.35900045	      0.00000000	      0.00000000	    -63.89155206	     -3.63468693	     -4.71302680	     59.18821283	      0.55622832	     21.77585254	      3.36512154	      8.35993113	      0.00000000	      0.00000000	     66.30838532	    -10.40142397	     85.06548134	      4.17267493	     85.89121492	      0.00000000	      0.00000000
